<svg width="109" height="39" viewBox="0 0 109 39" fill="none" xmlns="http://www.w3.org/2000/svg">
<g id="Rectangle 3">
<mask id="path-1-inside-1" fill="white">
<path d="M19.3227 39C8.65108 39 0 30.3489 0 19.6773V19.6773C0 9.00562 8.65108 0.354545 19.3227 0.354545L89.6773 0.354545C100.349 0.354545 109 9.00562 109 19.6773V19.6773C109 30.3489 100.349 39 89.6773 39L53.9657 39H19.3227Z"/>
</mask>
<path d="M19.3227 39C8.65108 39 0 30.3489 0 19.6773V19.6773C0 9.00562 8.65108 0.354545 19.3227 0.354545L89.6773 0.354545C100.349 0.354545 109 9.00562 109 19.6773V19.6773C109 30.3489 100.349 39 89.6773 39L53.9657 39H19.3227Z" stroke="#637097" stroke-width="40" mask="url(#path-1-inside-1)"/>
</g>
</svg>
